<?xml version="1.0" encoding="UTF-8"?>
<!-- Generator: Adobe Illustrator 16.0.4, SVG Export Plug-In . SVG Version: 6.00 Build 0)  -->
<!DOCTYPE svg PUBLIC "-//W3C//DTD SVG 1.1//EN" "http://www.w3.org/Graphics/SVG/1.1/DTD/svg11.dtd">
<svg version="1.1" id="Layer_1" xmlns="http://www.w3.org/2000/svg" xmlns:xlink="http://www.w3.org/1999/xlink" x="0px" y="0px" width="436.681px" height="83.217px" viewBox="0 0 436.681 83.217" enable-background="new 0 0 436.681 83.217" xml:space="preserve">
<g>
	<defs>
		<rect id="SVGID_1_" width="436.681" height="83.217"/>
	</defs>
	<clipPath id="SVGID_2_">
		<use xlink:href="#SVGID_1_" overflow="visible"/>
	</clipPath>
	<path clip-path="url(#SVGID_2_)" fill="#179FD0" d="M104.658,24.007c0-0.314,0.257-0.571,0.571-0.571h7.955   c0.315,0,0.707,0.218,0.872,0.485l9.481,15.251c0.166,0.267,0.437,0.267,0.603,0l9.482-15.251c0.165-0.267,0.558-0.485,0.873-0.485   h7.953c0.314,0,0.571,0.257,0.571,0.571v37.221c0,0.313-0.257,0.57-0.571,0.57h-7.243c-0.313,0-0.571-0.257-0.571-0.57V37.324   c0-0.314-0.14-0.357-0.313-0.094l-10.168,15.433c-0.174,0.262-0.364,0.475-0.424,0.475c-0.06,0-0.251-0.213-0.424-0.475   l-10.057-15.269c-0.173-0.262-0.315-0.219-0.315,0.095v23.739c0,0.313-0.257,0.57-0.571,0.57h-7.133   c-0.314,0-0.571-0.257-0.571-0.57V24.007z"/>
	<path clip-path="url(#SVGID_2_)" fill="#179FD0" d="M150.583,24.007c0-0.314,0.257-0.571,0.572-0.571h27.793   c0.313,0,0.572,0.257,0.572,0.571v6.365c0,0.315-0.259,0.571-0.572,0.571h-19.408c-0.315,0-0.572,0.257-0.572,0.572v6.639   c0,0.315,0.257,0.572,0.572,0.572h16.942c0.314,0,0.571,0.257,0.571,0.571v6.367c0,0.312-0.257,0.57-0.571,0.57h-16.942   c-0.315,0-0.572,0.257-0.572,0.569v6.916c0,0.312,0.257,0.571,0.572,0.571h19.682c0.314,0,0.57,0.257,0.57,0.571v6.365   c0,0.313-0.256,0.57-0.57,0.57h-28.067c-0.315,0-0.572-0.257-0.572-0.57V24.007z"/>
	<path clip-path="url(#SVGID_2_)" fill="#179FD0" d="M187.669,23.328h14.391c12.056,0,20.384,8.275,20.384,19.071v0.11   c0,10.796-8.328,19.182-20.384,19.182h-14.391c-0.334,0-0.57-0.271-0.57-0.584V23.899C187.1,23.54,187.425,23.328,187.669,23.328    M195.539,31.515v21.993c0,0.347,0.251,0.564,0.574,0.564h5.948c6.905,0,11.561-4.657,11.561-11.453v-0.11   c0-6.796-4.656-11.563-11.561-11.563h-5.948C195.79,30.946,195.539,31.218,195.539,31.515"/>
	<path clip-path="url(#SVGID_2_)" fill="#179FD0" d="M227.875,24.007c0-0.314,0.258-0.571,0.571-0.571h7.298   c0.312,0,0.57,0.257,0.57,0.571v37.221c0,0.313-0.258,0.57-0.57,0.57h-7.298c-0.313,0-0.571-0.257-0.571-0.57V24.007z"/>
	<path clip-path="url(#SVGID_2_)" fill="#179FD0" d="M256.366,23.686c0.126-0.288,0.482-0.524,0.797-0.524h6.64   c0.312,0,0.671,0.236,0.794,0.524l15.993,37.588c0.123,0.287-0.034,0.523-0.348,0.523h-7.682c-0.312,0-0.667-0.237-0.785-0.529   l-3.076-7.546c-0.12-0.289-0.474-0.53-0.786-0.53h-15.08c-0.314,0-0.667,0.241-0.788,0.53l-3.075,7.546   c-0.118,0.292-0.473,0.529-0.786,0.529h-7.46c-0.314,0-0.473-0.236-0.349-0.523L256.366,23.686z M264.898,45.742   c0.312,0,0.474-0.239,0.354-0.529l-4.664-11.385c-0.118-0.29-0.312-0.29-0.431,0l-4.666,11.385   c-0.116,0.29,0.042,0.529,0.355,0.529H264.898z"/>
	<path clip-path="url(#SVGID_2_)" fill="#179FD0" d="M296.598,24.007c0-0.314,0.258-0.571,0.571-0.571h7.298   c0.315,0,0.57,0.257,0.57,0.571v29.55c0,0.312,0.257,0.57,0.571,0.57h17.984c0.315,0,0.569,0.258,0.569,0.569v6.531   c0,0.313-0.254,0.57-0.569,0.57h-26.424c-0.313,0-0.571-0.257-0.571-0.57V24.007z"/>
	<path clip-path="url(#SVGID_2_)" fill="#179FD0" d="M343.341,23.686c0.122-0.288,0.48-0.524,0.795-0.524h6.639   c0.315,0,0.672,0.236,0.794,0.524l15.994,37.588c0.123,0.287-0.033,0.523-0.346,0.523h-7.684c-0.313,0-0.668-0.237-0.785-0.529   l-3.076-7.546c-0.119-0.289-0.474-0.53-0.785-0.53h-15.081c-0.315,0-0.669,0.241-0.786,0.53l-3.077,7.546   c-0.118,0.292-0.472,0.529-0.785,0.529h-7.463c-0.313,0-0.469-0.236-0.347-0.523L343.341,23.686z M351.872,45.742   c0.312,0,0.473-0.239,0.354-0.529l-4.663-11.385c-0.12-0.29-0.313-0.29-0.434,0l-4.665,11.385c-0.117,0.29,0.042,0.529,0.355,0.529   H351.872z"/>
	<path clip-path="url(#SVGID_2_)" fill="#179FD0" d="M372.08,23.436h17.245c4.386,0,7.838,1.206,10.031,3.398   c1.75,1.754,2.63,3.891,2.63,6.522v0.11c0,4.328-2.305,6.739-5.043,8.274c4.438,1.7,7.181,4.272,7.181,9.426v0.11   c0,7.015-5.701,10.521-14.36,10.521h-17.678c-0.31,0-0.571-0.272-0.571-0.583V24.008C371.515,23.664,371.799,23.436,372.08,23.436    M393.602,34.78c0-2.52-1.976-3.947-5.538-3.947h-7.749c-0.386,0-0.581,0.328-0.581,0.571v6.963c0,0.31,0.283,0.578,0.581,0.578   h7.203c3.727,0,6.084-1.205,6.084-4.055V34.78z M389.489,45.961h-9.175c-0.335,0-0.581,0.274-0.581,0.571v7.286   c0,0.274,0.257,0.581,0.581,0.581h9.449c3.728,0,5.976-1.314,5.976-4.164v-0.11C395.739,47.549,393.818,45.961,389.489,45.961"/>
	<path clip-path="url(#SVGID_2_)" fill="#179FD0" d="M406.75,56.581c-0.146-0.124-0.335-0.492-0.076-0.799   c1.045-1.25,4.053-4.857,4.255-5.102c0.247-0.294,0.674-0.204,0.825-0.089c3.319,2.639,6.812,4.298,11.007,4.298   c3.452-0.004,5.535-1.372,5.534-3.618v-0.11c0-2.14-1.317-3.236-7.727-4.877c-7.728-1.972-12.716-4.11-12.717-11.727l0.001-0.11   c-0.001-6.96,5.588-11.564,13.428-11.564c5.375,0,9.98,1.637,13.801,4.525c0.206,0.156,0.374,0.453,0.161,0.761   c-0.104,0.153-2.797,4.058-3.762,5.455c-0.211,0.307-0.556,0.341-0.793,0.182c-3.236-2.176-6.431-3.47-9.52-3.47   c-3.234,0-4.932,1.479-4.932,3.342v0.111c0.001,2.52,1.644,3.343,8.277,5.04c7.78,2.027,12.166,4.823,12.167,11.508l-0.001,0.11   c0.002,7.618-5.806,11.893-14.082,11.894C416.968,62.342,411.288,60.437,406.75,56.581"/>
	<path clip-path="url(#SVGID_2_)" fill="#179FD0" d="M61.602,24.798l-4.123-4.117c-0.547-0.546-1.507-0.545-2.051,0L42.136,33.953   c-0.258,0.257-0.723,0.257-0.981,0L27.868,20.681c-0.549-0.546-1.505-0.546-2.052,0l-4.123,4.117   c-0.274,0.275-0.424,0.639-0.424,1.028c0,0.388,0.152,0.752,0.424,1.023l14.938,14.935c0.344,0.342,0.644,1.069,0.644,1.552V61.57   c0,0.798,0.652,1.45,1.451,1.45h5.842c0.8,0,1.45-0.652,1.45-1.45V43.336c0-0.485,0.301-1.21,0.643-1.552L61.6,26.849   c0.273-0.271,0.425-0.635,0.425-1.023C62.025,25.437,61.874,25.073,61.602,24.798"/>
	<path clip-path="url(#SVGID_2_)" fill="#179FD0" d="M80.127,0H3.091C1.384,0,0,1.383,0,3.091v77.034   c0,1.707,1.384,3.091,3.091,3.091h77.036c1.706,0,3.09-1.384,3.09-3.091V3.091C83.217,1.383,81.833,0,80.127,0 M74.694,72.614   c0,1.15-0.932,2.082-2.081,2.082H10.581c-1.149,0-2.081-0.932-2.081-2.082V10.583c0-1.149,0.932-2.08,2.081-2.08h62.032   c1.149,0,2.081,0.931,2.081,2.08V72.614z"/>
</g>
</svg>